# xmcd
#
# Track frame offsets:
#	150
#	29351
#	50188
#	70409
#	94411
#	113424
#	129599
#	149507
#	166109
#	187449
#
# Disc length: 2833 seconds
#
# Revision: 1
# Processed by: cddbd v1.5.2PL0 Copyright (c) Steve Scherf et al.
# Submitted via: EZCDAudioConverter 8.0.2.1
#
DISCID=990b0f0a
DTITLE=Various Artist - Bước Chân Tình Xa
DYEAR=2001
DGENRE=Dance Pop
TTITLE0=Đan Trường - Phiêu du
TTITLE1=Tik Tik Tak - Ca dao xanh
TTITLE2=Lâm Vũ - Từ ngày vào hạ
TTITLE3=Guys By Chance - Vòng tay bè bạn
TTITLE4=Đăng Minh - Biển chiều
TTITLE5=Đan Trường - Gõ cửa trái tim
TTITLE6=Lâm Vũ - Tình sầu
TTITLE7=Buys By Chance - Trái tim vui
TTITLE8=Đăng Minh - Đường xưa
TTITLE9=Đan Trường - Bước Chân Tình Xa
EXTD=
EXTT0=
EXTT1=
EXTT2=
EXTT3=
EXTT4=
EXTT5=
EXTT6=
EXTT7=
EXTT8=
EXTT9=
PLAYORDER=
